<svg width="32" height="32" viewBox="0 0 32 32" fill="none" xmlns="http://www.w3.org/2000/svg">
  <path d="M16 4C18.2091 4 20 5.79086 20 8C20 10.2091 18.2091 12 16 12C13.7909 12 12 10.2091 12 8C12 5.79086 13.7909 4 16 4Z" stroke="#D4AF37" stroke-width="2"/>
  <path d="M8 20C10.2091 20 12 21.7909 12 24C12 26.2091 10.2091 28 8 28C5.79086 28 4 26.2091 4 24C4 21.7909 5.79086 20 8 20Z" stroke="#D4AF37" stroke-width="2"/>
  <path d="M24 20C26.2091 20 28 21.7909 28 24C28 26.2091 26.2091 28 24 28C21.7909 28 20 26.2091 20 24C20 21.7909 21.7909 20 24 20Z" stroke="#D4AF37" stroke-width="2"/>
  <path d="M16 12V28M8 24H24M16 12L8 20M16 12L24 20" stroke="#D4AF37" stroke-width="2"/>
</svg>